<svg height="261" viewBox="0 0 235 261" width="235" xmlns="http://www.w3.org/2000/svg"><g fill="#90ee90" transform="matrix(-1 0 0 1 235 0)"><path d="m226.499239 240.824827-9.620806-34.304446c-.898963-3.185206-4.839841-5.182562-8.802877-4.467516-3.970632.715046-6.460507 3.876384-5.569141 7.06159l9.628404 34.316127c.095594.336701.139909.679497.139909 1.028387 0 2.600168-2.637381 4.721438-5.885678 4.721438h-179.7692374c-3.2413325 0-5.8856774-2.12127-5.8856774-4.727533 0-.348889.0443151-.691177.147506-1.033973l14.9544445-53.332904h51.1984927c4.0662263 0 7.3664345-2.647398 7.3664345-5.909289s-3.3002082-5.909289-7.3664345-5.909289h-47.8843568l11.233876-40.06646c.8913664-3.185206-1.5985087-6.346543-5.569141-7.061589-3.985193-.697272-7.9115102 1.288403-8.8028767 4.467515l-29.50372248 105.206262c-.33869392 1.18785-.50835742 2.416836-.50835742 3.646329 0 9.118364 9.2453945 16.540524 20.6191795 16.540524h179.7616405c11.366822 0 20.61918-7.416574 20.61918-16.540524 0-1.229493-.16903-2.452385-.500761-3.634649z"/><path d="m122.750156 46h-14.500312c-4.001869 0-7.249844 2.6880371-7.249844 6s3.247975 6 7.249844 6h14.500312c4.001869 0 7.249844-2.6880371 7.249844-6s-3.247352-6-7.249844-6z"/><path d="m122.750156 71h-14.500312c-4.001869 0-7.249844 2.6880371-7.249844 6s3.247975 6 7.249844 6h14.500312c4.001869 0 7.249844-2.6880371 7.249844-6 .000623-3.3119629-3.240498-6-7.249844-6z"/><path d="m122.750156 96h-14.500312c-4.001869 0-7.249844 2.6880371-7.249844 6 0 3.311963 3.247975 6 7.249844 6h14.500312c4.001869 0 7.249844-2.688037 7.249844-6 0-3.3119629-3.240498-6-7.249844-6z"/><path d="m122.749688 119h-14.5c-4.001783 0-7.249688 2.687922-7.249688 5.999742 0 3.311821 3.247905 6.000258 7.250312 6.000258h14.5c4.001783 0 7.249688-2.687922 7.249688-5.999742 0-3.311821-3.241052-6.000258-7.250312-6.000258z"/><path d="m123 142h-7c-3.863957 0-7 2.688037-7 6s3.136043 6 7 6h7c3.863957 0 7-2.688037 7-6s-3.128824-6-7-6z"/><path d="m227.656537 171.363867c-4.053546 0-7.343463 2.647227-7.343463 5.908906h-10.648527l-45.699741-163.4338668c-2.276373-8.14835933-11.111122-13.8389062-21.494587-13.8389062h-49.9369376c-10.3840961 0-19.2182141 5.69054687-21.4952177 13.8333203l-22.7138692 81.25-7.7625125-8.7455469c2.1955919-2.7538672 3.5101703-6.0094531 3.5101703-9.5194531 0-9.7738672-9.8848971-17.7272266-22.0310205-17.7272266-1.7916888 0-3.5101703.2188672-5.1775327.5438672l-3.5322588-3.9827734c-2.3647264-2.6589063-6.96164848-3.2677734-10.2515654-1.3710938-3.30443218 1.8966797-4.06869256 5.59-1.71090826 8.2433204l3.20156312 3.6105468c-2.81974847 2.9783203-4.56789155 6.6538672-4.56789155 10.6838672 0 9.7738672 9.88489711 17.7272266 22.03102049 17.7272266 2.4234185 0 4.7149375-.39 6.8960142-.975l82.5943961 93.0439453c1.380844 1.553906 3.613039 2.476094 5.977766 2.476094h102.811639c0 3.261679 3.289917 5.908906 7.343463 5.908906s7.343463-2.647227 7.343463-5.908906v-11.818321c.000631-3.261679-3.282344-5.908906-7.343463-5.908906zm-205.6232783-88.6366404c-4.0466042 0-7.3434632-2.6533203-7.3434632-5.9089063 0-3.2560937 3.2974901-5.9089062 7.3434632-5.9089062 4.0466041 0 7.3434631 2.6533203 7.3434631 5.9089062.0006311 3.255586-3.296859 5.9089063-7.3434631 5.9089063zm63.332005-66.3c.7636293-2.7122266 3.7083353-4.6089063 7.1673866-4.6089063h49.9369377c3.459051 0 6.403757 1.8966797 7.167387 4.615l2.011942 7.2033203h-68.2955956zm35.9183443 160.8455464-61.5693462-69.355c.0296616-.094453.1173843-.159453.1394728-.253906l20.1951546-72.2089061h74.9057218l39.655711 141.8183201h-73.326714z"/></g></svg>