<?xml version="1.0" encoding="UTF-8"?>
<svg width="235px" height="261px" viewBox="0 0 235 261" version="1.1" xmlns="http://www.w3.org/2000/svg" xmlns:xlink="http://www.w3.org/1999/xlink">
    <!-- Generator: Sketch 47.1 (45422) - http://www.bohemiancoding.com/sketch -->
    <title>metronome3</title>
    <desc>Created with Sketch.</desc>
    <defs></defs>
    <g id="Page-1" stroke="none" stroke-width="1" fill="none" fill-rule="evenodd">
        <g id="Artboard-Copy" transform="translate(0.000000, -1129.000000)" fill-rule="nonzero" fill="#FFFFFF">
            <g id="metronome3" transform="translate(117.500000, 1259.500000) scale(-1, 1) translate(-117.500000, -1259.500000) translate(0.000000, 1129.000000)">
                <path d="M226.499239,240.824827 L216.878433,206.520381 C215.97947,203.335175 212.038592,201.337819 208.075556,202.052865 C204.104924,202.767911 201.615049,205.929249 202.506415,209.114455 L212.134819,243.430582 C212.230413,243.767283 212.274728,244.110079 212.274728,244.458969 C212.274728,247.059137 209.637347,249.180407 206.38905,249.180407 L26.6198126,249.180407 C23.3784801,249.180407 20.7341352,247.059137 20.7341352,244.452874 C20.7341352,244.103985 20.7784503,243.761697 20.8816412,243.418901 L35.8360857,190.085997 L87.0345784,190.085997 C91.1008047,190.085997 94.4010129,187.438599 94.4010129,184.176708 C94.4010129,180.914817 91.1008047,178.267419 87.0345784,178.267419 L39.1502216,178.267419 L50.3840976,138.200959 C51.275464,135.015753 48.7855889,131.854416 44.8149566,131.13937 C40.8297636,130.442098 36.9034464,132.427773 36.0120799,135.606885 L6.50835742,240.813147 C6.1696635,242.000997 6,243.229983 6,244.459476 C6,253.57784 15.2453945,261 26.6191795,261 L206.38082,261 C217.747642,261 227,253.583426 227,244.459476 C227,243.229983 226.83097,242.007091 226.499239,240.824827 Z" id="Shape"></path>
                <path d="M122.750156,46 L108.249844,46 C104.247975,46 101,48.6880371 101,52 C101,55.3119629 104.247975,58 108.249844,58 L122.750156,58 C126.752025,58 130,55.3119629 130,52 C130,48.6880371 126.752648,46 122.750156,46 Z" id="Shape"></path>
                <path d="M122.750156,71 L108.249844,71 C104.247975,71 101,73.6880371 101,77 C101,80.3119629 104.247975,83 108.249844,83 L122.750156,83 C126.752025,83 130,80.3119629 130,77 C130.000623,73.6880371 126.759502,71 122.750156,71 Z" id="Shape"></path>
                <path d="M122.750156,96 L108.249844,96 C104.247975,96 101,98.6880371 101,102 C101,105.311963 104.247975,108 108.249844,108 L122.750156,108 C126.752025,108 130,105.311963 130,102 C130,98.6880371 126.759502,96 122.750156,96 Z" id="Shape"></path>
                <path d="M122.749688,119 L108.249688,119 C104.247905,119 101,121.687922 101,124.999742 C101,128.311563 104.247905,131 108.250312,131 L122.750312,131 C126.752095,131 130,128.312078 130,125.000258 C130,121.688437 126.758948,119 122.749688,119 Z" id="Shape"></path>
                <path d="M123,142 L116,142 C112.136043,142 109,144.688037 109,148 C109,151.311963 112.136043,154 116,154 L123,154 C126.863957,154 130,151.311963 130,148 C130,144.688037 126.871176,142 123,142 Z" id="Shape"></path>
                <path d="M227.656537,171.363867 C223.602991,171.363867 220.313074,174.011094 220.313074,177.272773 L209.664547,177.272773 L163.964806,13.8389062 C161.688433,5.69054687 152.853684,0 142.470219,0 L92.5332814,0 C82.1491853,0 73.3150673,5.69054687 71.0380637,13.8333203 L48.3241945,95.0833203 L40.561682,86.3377734 C42.7572739,83.5839062 44.0718523,80.3283203 44.0718523,76.8183203 C44.0718523,67.0444531 34.1869552,59.0910937 22.0408318,59.0910937 C20.249143,59.0910937 18.5306615,59.3099609 16.8632991,59.6349609 L13.3310403,55.6521875 C10.9663139,52.9932812 6.36939182,52.3844141 3.0794749,54.2810937 C-0.22495728,56.1777734 -0.989217664,59.8710937 1.36856664,62.5244141 L4.57012976,66.1349609 C1.75038129,69.1132812 0.00223821035,72.7888281 0.00223821035,76.8188281 C0.00223821035,86.5926953 9.88713532,94.5460547 22.0332587,94.5460547 C24.4566772,94.5460547 26.7481962,94.1560547 28.9292729,93.5710547 L111.523669,186.615 C112.904513,188.168906 115.136708,189.091094 117.501435,189.091094 L220.313074,189.091094 C220.313074,192.352773 223.602991,195 227.656537,195 C231.710083,195 235,192.352773 235,189.091094 L235,177.272773 C235.000631,174.011094 231.717656,171.363867 227.656537,171.363867 Z M22.0332587,82.7272266 C17.9866545,82.7272266 14.6897955,80.0739063 14.6897955,76.8183203 C14.6897955,73.5622266 17.9872856,70.9094141 22.0332587,70.9094141 C26.0798628,70.9094141 29.3767218,73.5627344 29.3767218,76.8183203 C29.3773529,80.0739063 26.0798628,82.7272266 22.0332587,82.7272266 Z M85.3652637,16.4272266 C86.128893,13.715 89.073599,11.8183203 92.5326503,11.8183203 L142.469588,11.8183203 C145.928639,11.8183203 148.873345,13.715 149.636975,16.4333203 L151.648917,23.6366406 L83.3533214,23.6366406 L85.3652637,16.4272266 Z M121.283608,177.272773 L59.7142618,107.917773 C59.7439234,107.82332 59.8316461,107.75832 59.8537346,107.663867 L80.0488892,35.4549609 L154.954611,35.4549609 L194.610322,177.273281 L121.283608,177.273281 L121.283608,177.272773 Z" id="Shape"></path>
            </g>
        </g>
    </g>
</svg>